# xmcd
#
# Track frame offsets:
#	183
#	12708
#	26813
#	38530
#	51365
#	65143
#	75968
#	90310
#	104410
#	116928
#	131365
#	141218
#	154725
#	168268
#	179140
#
# Disc length: 2829
#
# Revision: 2
# Processed by: cddbd v1.5.1PL0 Copyright (c) Steve Scherf et al.
# Submitted via: OrangeCD 5.1
# Normalized: r0:DSETVAR1,TDELIM( - ),TSWAP
#
DISCID=cc0b0b0f
DTITLE=Various Artist - Legendary Blues Classics, Volume 1
DYEAR=1991
DGENRE=Blues
TTITLE0=Little Walter - Boom, Boom Out Go The Lights
TTITLE1=John Lee Hooker - Dreamin' Blues
TTITLE2=Howlin' Wolf - Who Will Be Next
TTITLE3=Willie Mabon - Seventh Son
TTITLE4=Muddy Waters - I'm Ready
TTITLE5=Johnny "Guitar" Watson - Reconsider Baby
TTITLE6=Little Milton - If Walls Could Talk
TTITLE7=Jimmy Rogers - Today Today Blues
TTITLE8=Mitty Collier - Hallelujah (I Love Him So)
TTITLE9=Bessie Smith - I'm Down in the Dumps
TTITLE10=Ko Ko Taylor - I Don't Care Who Knows
TTITLE11=Lowell Fulsom - Loving You
TTITLE12=Etta James - At Last
TTITLE13=Bo Diddley - Diddley Daddy
TTITLE14=Buddy Guy - Stone Crazy
EXTD=
EXTT0=
EXTT1=
EXTT2=
EXTT3=
EXTT4=
EXTT5=
EXTT6=
EXTT7=
EXTT8=
EXTT9=
EXTT10=
EXTT11=
EXTT12=
EXTT13=
EXTT14=
PLAYORDER=
